<!-- Generated by IcoMoon.io -->
<svg version="1.1" xmlns="http://www.w3.org/2000/svg" width="32" height="32" viewBox="0 0 32 32">
<path d="M4.694 0.094c-2.237 0.406-3.969 2.013-4.519 4.188l-0.144 0.563v22.313l0.144 0.563c0.5 1.994 2.112 3.606 4.106 4.106l0.563 0.144h22.313l0.55-0.137c2.050-0.525 3.6-2.075 4.125-4.131l0.137-0.544v-22.313l-0.144-0.563c-0.5-1.981-2.081-3.575-4.075-4.106l-0.531-0.144-11.031-0.006c-9.056-0.013-11.113 0-11.494 0.069zM26.544 1.475c1.9 0.394 3.413 1.831 3.931 3.744 0.113 0.419 0.119 0.831 0.119 10.844v10.406l-0.2 0.594c-0.556 1.625-1.706 2.781-3.331 3.331l-0.594 0.2h-10.406c-10.012 0-10.425-0.006-10.844-0.119-1.906-0.512-3.356-2.038-3.744-3.931-0.087-0.425-0.1-1.613-0.1-10.544s0.012-10.119 0.1-10.544c0.406-1.969 1.994-3.563 3.962-3.987 0.338-0.069 2.15-0.087 10.519-0.087 8.981-0.006 10.163 0.006 10.587 0.094z"></path>
<path d="M10.031 7.744c-2.15 0.338-3.575 0.588-3.7 0.65-0.112 0.063-0.281 0.206-0.375 0.338l-0.175 0.225-0.019 1.625-0.019 1.619 0.162 0.275c0.1 0.175 0.256 0.325 0.425 0.419 0.244 0.125 0.356 0.137 1.5 0.156l1.231 0.025v5.256c0 4.969 0.006 5.275 0.119 5.512 0.137 0.313 0.431 0.569 0.744 0.656 0.306 0.081 3.781 0.081 4.088 0 0.313-0.087 0.606-0.344 0.744-0.656 0.113-0.238 0.119-0.613 0.119-7.969 0-7.375-0.006-7.731-0.119-7.969-0.194-0.419-0.644-0.725-1.050-0.713-0.094 0-1.75 0.25-3.675 0.55zM13.688 15.875v7.5h-3.438v-11.5h-3.375l0.013-1.231 0.019-1.238 3.25-0.506c1.787-0.281 3.313-0.512 3.394-0.519l0.137-0.006v7.5z"></path>
<path d="M19.719 7.744c-1.925 0.3-3.569 0.581-3.656 0.631-0.225 0.113-0.431 0.319-0.55 0.531-0.088 0.156-0.106 0.431-0.125 1.512-0.025 1.613 0.025 1.931 0.356 2.262 0.325 0.325 0.606 0.381 1.906 0.381h1.1v5.263c0 4.975 0.006 5.281 0.119 5.519 0.137 0.313 0.431 0.569 0.744 0.656 0.306 0.081 3.781 0.081 4.087 0 0.313-0.087 0.606-0.344 0.744-0.656 0.113-0.238 0.119-0.613 0.119-7.969 0-7.375-0.006-7.731-0.119-7.969-0.194-0.419-0.644-0.725-1.050-0.713-0.094 0-1.75 0.25-3.675 0.55zM23.375 15.875v7.5h-3.438v-11.5h-3.375l0.012-1.231 0.019-1.238 3.25-0.506c1.788-0.281 3.313-0.512 3.394-0.519l0.137-0.006v7.5z"></path>
</svg>
